<?xml version="1.0" encoding="UTF-8"?>
<svg width="721px" height="53px" viewBox="0 0 721 53" version="1.1" xmlns="http://www.w3.org/2000/svg" xmlns:xlink="http://www.w3.org/1999/xlink">
    <title>Light Export</title>
    <defs>
        <linearGradient x1="1.3675493e-14%" y1="100%" x2="100%" y2="-1.57614056e-14%" id="linearGradient-1">
            <stop stop-color="#C623FF" offset="0%"></stop>
            <stop stop-color="#FF2254" offset="100%"></stop>
        </linearGradient>
    </defs>
    <g id="Light-Export" stroke="none" stroke-width="1" fill="none" fill-rule="evenodd">
        <g id="Station" transform="translate(437.701624, -0.122000)" fill="#292929" fill-rule="nonzero">
            <polygon id="Path" points="234.784844 52.122 248.800844 52.122 248.800844 24.09 270.627844 52.122 283.037844 52.122 283.037844 1.022 269.021844 1.022 269.021844 28.032 247.997844 1.022 234.784844 1.022"></polygon>
            <path d="M206.190844,53.144 C221.958844,53.144 233.784844,41.245 233.784844,26.572 L233.784844,26.426 C233.784844,11.753 222.104844,0 206.336844,0 C190.568844,0 178.742844,11.899 178.742844,26.572 L178.742844,26.718 C178.742844,41.391 190.422844,53.144 206.190844,53.144 Z M206.336844,40.369 C198.598844,40.369 193.269844,33.945 193.269844,26.572 L193.269844,26.426 C193.269844,19.053 198.452844,12.775 206.190844,12.775 C214.001844,12.775 219.330844,19.199 219.330844,26.572 L219.330844,26.718 C219.330844,34.091 214.147844,40.369 206.336844,40.369 Z" id="Shape"></path>
            <polygon id="Path" points="163.507844 52.122 177.742844 52.122 177.742844 1.022 163.507844 1.022"></polygon>
            <polygon id="Path" points="132.015844 52.122 146.177844 52.122 146.177844 13.432 161.507844 13.432 161.507844 1.022 109.060149 1.022 114.487217 13.432 132.015844 13.432"></polygon>
            <path d="M72.0502694,52.122 L86.9422694,52.122 L90.5922694,42.997 L110.302269,42.997 L114.025269,52.122 L129.209269,52.122 L107.455269,0.657 L93.8042694,0.657 L72.0502694,52.122 Z M94.7532694,31.974 L100.520269,17.447 L106.214269,31.974 L94.7532694,31.974 Z" id="Shape"></path>
            <polygon id="Path" points="55.081695 52.122 69.243695 52.122 69.243695 13.432 86.6329995 13.432 92.0524766 1.022 39.751695 1.022 39.751695 13.432 55.081695 13.432"></polygon>
            <path d="M29.7526937,52.2484569 C42.1626937,52.2484569 50.3771205,47.4561517 50.3771205,37.0171517 C50.3771205,26.5781517 43.0771205,22.849 31.3241205,20.294 C24.2431205,18.688 22.7317025,18.363514 22.7317025,15.7647848 C22.7317025,13.1660555 26.1713533,13.4106297 27.6011205,13.4208684 C32.1270341,13.453279 45.9467643,13.4208684 50.6217138,13.4208684 L50.6217138,1.022 C38.7813304,1.022 36.2881205,1.022 27.6011205,1.022 C15.3371205,1.022 8.1831205,6.27478477 8.1831205,15.7647848 C8.1831205,25.2547848 16.5781205,30.222 27.4551205,32.704 C34.3901205,34.31 35.7837132,34.4789164 35.7837132,37.0171517 C35.7837132,39.555387 33.5486937,39.9103536 29.7526937,39.9103536 C23.8396937,39.9103536 10.1547574,39.9103536 5.14916988,39.9103536 L0,52.2484569 C6.58628143,52.2484569 20.7006937,52.2484569 29.7526937,52.2484569 Z" id="Path"></path>
        </g>
        <g id="Inflation" transform="translate(71.318000, -0.122000)" fill="#292929" fill-rule="nonzero">
            <polygon id="Path" points="303.757486 52.122 317.773486 52.122 317.773486 24.09 339.600486 52.122 352.010486 52.122 352.010486 1.022 337.994486 1.022 337.994486 28.032 316.970486 1.022 303.757486 1.022"></polygon>
            <path d="M275.163486,53.144 C290.931486,53.144 302.757486,41.245 302.757486,26.572 L302.757486,26.426 C302.757486,11.753 291.077486,0 275.309486,0 C259.541486,0 247.715486,11.899 247.715486,26.572 L247.715486,26.718 C247.715486,41.391 259.395486,53.144 275.163486,53.144 Z M275.309486,40.369 C267.571486,40.369 262.242486,33.945 262.242486,26.572 L262.242486,26.426 C262.242486,19.053 267.425486,12.775 275.163486,12.775 C282.974486,12.775 288.303486,19.199 288.303486,26.572 L288.303486,26.718 C288.303486,34.091 283.120486,40.369 275.309486,40.369 Z" id="Shape"></path>
            <polygon id="Path" points="232.480486 52.122 246.715486 52.122 246.715486 1.022 232.480486 1.022"></polygon>
            <polygon id="Path" points="200.988486 52.122 215.150486 52.122 215.150486 13.432 230.480486 13.432 230.480486 1.022 178.395764 1.022 183.656958 13.432 200.988486 13.432"></polygon>
            <path d="M140.832263,52.122 L155.724263,52.122 L159.374263,42.997 L179.084263,42.997 L182.807263,52.122 L197.991263,52.122 L176.237263,0.657 L162.586263,0.657 L140.832263,52.122 Z M163.535263,31.974 L169.302263,17.447 L174.996263,31.974 L163.535263,31.974 Z" id="Shape"></path>
            <polygon id="Path" points="107.368 52.122 146.277 52.122 146.277 39.712 121.53 39.712 121.53 1.022 107.368 1.022"></polygon>
            <polygon id="Path" points="66.488 52.122 80.65 52.122 80.65 33.872 95.2753124 33.872 95.2753124 22.119 80.65 22.119 80.65 13.432 107.368 13.432 107.368 1.022 66.488 1.022"></polygon>
            <polygon id="Path" points="16.235 52.122 30.251 52.122 30.251 24.09 52.078 52.122 64.488 52.122 64.488 1.022 50.472 1.022 50.472 28.032 29.448 1.022 16.235 1.022"></polygon>
            <polygon id="Path" points="0 52.122 14.235 52.122 14.235 1.022 0 1.022"></polygon>
        </g>
        <polygon id="Triangle-Mark" fill="url(#linearGradient-1)" points="51.1003248 0.9 51.1003248 52 0.000324765162 52"></polygon>
    </g>
</svg>